<?xml version="1.0" encoding="UTF-8"?>
<svg xmlns="http://www.w3.org/2000/svg" xmlns:xlink="http://www.w3.org/1999/xlink" width="16px" height="16px" viewBox="0 0 16 16" version="1.1">
<defs>
<linearGradient id="linear0" gradientUnits="userSpaceOnUse" x1="199" y1="7" x2="199" y2="301" gradientTransform="matrix(0.0401003,0,0,0.0517799,0,0)">
<stop offset="0.1875" style="stop-color:rgb(7.843137%,19.607843%,42.745098%);stop-opacity:1;"/>
<stop offset="1" style="stop-color:rgb(14.509804%,49.019608%,68.627451%);stop-opacity:1;"/>
</linearGradient>
<radialGradient id="radial0" gradientUnits="userSpaceOnUse" cx="0" cy="0" fx="0" fy="0" r="1" gradientTransform="matrix(3.057322,3.232632,-3.639637,5.739469,7.97995,7.61165)">
<stop offset="0" style="stop-color:rgb(78.823529%,74.117647%,30.980392%);stop-opacity:1;"/>
<stop offset="0.25" style="stop-color:rgb(66.27451%,100%,65.490196%);stop-opacity:1;"/>
<stop offset="0.5" style="stop-color:rgb(52.156863%,88.235294%,79.607843%);stop-opacity:1;"/>
<stop offset="0.75" style="stop-color:rgb(12.156863%,68.235294%,89.019608%);stop-opacity:1;"/>
<stop offset="1" style="stop-color:rgb(21.568627%,78.431373%,58.039216%);stop-opacity:1;"/>
</radialGradient>
</defs>
<g id="surface1">
<path style=" stroke:none;fill-rule:nonzero;fill:url(#linear0);" d="M 15.597656 7.972656 C 15.597656 3.769531 12.1875 0.363281 7.980469 0.363281 C 3.773438 0.363281 0.359375 3.769531 0.359375 7.972656 C 0.359375 12.179688 3.773438 15.585938 7.980469 15.585938 C 12.1875 15.585938 15.597656 12.179688 15.597656 7.972656 Z M 15.597656 7.972656 "/>
<path style=" stroke:none;fill-rule:nonzero;fill:url(#radial0);" d="M 4.644531 4.210938 L 5.753906 5.820312 L 5.753906 4.179688 L 5.78125 4.179688 L 5.78125 6.277344 L 5.753906 6.277344 L 5.753906 5.878906 L 4.617188 4.230469 C 4.613281 4.230469 4.609375 4.226562 4.605469 4.222656 C 4.605469 4.222656 4.601562 4.21875 4.601562 4.21875 C 4.597656 4.21875 4.597656 4.222656 4.59375 4.222656 C 4.59375 4.226562 4.59375 4.230469 4.59375 4.230469 L 4.59375 6.277344 L 4.5625 6.277344 L 4.5625 4.222656 C 4.5625 4.207031 4.570312 4.195312 4.578125 4.1875 C 4.585938 4.179688 4.59375 4.175781 4.601562 4.175781 C 4.609375 4.175781 4.617188 4.179688 4.621094 4.183594 C 4.628906 4.191406 4.636719 4.199219 4.644531 4.210938 Z M 4.808594 6.628906 C 4.847656 6.628906 4.875 6.617188 4.890625 6.597656 C 4.90625 6.574219 4.917969 6.539062 4.917969 6.488281 L 4.917969 5.207031 L 5.429688 6.011719 L 5.429688 6.488281 C 5.429688 6.539062 5.4375 6.574219 5.453125 6.597656 C 5.472656 6.617188 5.5 6.628906 5.539062 6.628906 L 5.988281 6.628906 C 6.027344 6.628906 6.054688 6.617188 6.070312 6.597656 C 6.089844 6.574219 6.097656 6.539062 6.097656 6.488281 L 6.097656 3.972656 C 6.097656 3.921875 6.089844 3.886719 6.070312 3.867188 C 6.054688 3.84375 6.027344 3.832031 5.988281 3.832031 L 5.539062 3.832031 C 5.5 3.832031 5.472656 3.84375 5.453125 3.867188 C 5.4375 3.886719 5.429688 3.921875 5.429688 3.972656 L 5.429688 4.796875 L 4.847656 3.9375 C 4.820312 3.898438 4.792969 3.871094 4.765625 3.855469 C 4.738281 3.839844 4.707031 3.832031 4.667969 3.832031 L 4.355469 3.832031 C 4.320312 3.832031 4.289062 3.84375 4.273438 3.867188 C 4.257812 3.886719 4.25 3.921875 4.25 3.972656 L 4.25 6.488281 C 4.25 6.539062 4.257812 6.574219 4.273438 6.597656 C 4.289062 6.617188 4.320312 6.628906 4.355469 6.628906 Z M 4.902344 6.632812 L 4.511719 7.050781 C 4.503906 7.0625 4.492188 7.070312 4.472656 7.078125 C 4.457031 7.085938 4.441406 7.089844 4.421875 7.089844 L 3.96875 7.089844 C 3.921875 7.089844 3.886719 7.074219 3.863281 7.046875 C 3.839844 7.019531 3.832031 6.972656 3.832031 6.910156 L 3.832031 4.394531 C 3.832031 4.359375 3.832031 4.332031 3.839844 4.308594 C 3.847656 4.285156 3.859375 4.265625 3.871094 4.25 L 4.261719 3.828125 C 4.269531 3.816406 4.285156 3.808594 4.300781 3.804688 C 4.316406 3.796875 4.335938 3.792969 4.355469 3.792969 L 4.667969 3.792969 C 4.714844 3.792969 4.75 3.800781 4.78125 3.820312 C 4.8125 3.839844 4.839844 3.867188 4.871094 3.910156 L 5.078125 4.21875 L 5.441406 3.828125 C 5.453125 3.816406 5.464844 3.808594 5.480469 3.804688 C 5.5 3.796875 5.519531 3.792969 5.539062 3.792969 L 5.988281 3.792969 C 6.039062 3.792969 6.074219 3.808594 6.09375 3.835938 C 6.117188 3.863281 6.128906 3.910156 6.128906 3.972656 L 6.128906 6.488281 C 6.128906 6.523438 6.125 6.550781 6.117188 6.574219 C 6.109375 6.597656 6.101562 6.617188 6.085938 6.632812 L 5.695312 7.050781 C 5.6875 7.0625 5.675781 7.070312 5.65625 7.078125 C 5.640625 7.085938 5.621094 7.089844 5.601562 7.089844 L 5.152344 7.089844 C 5.101562 7.089844 5.066406 7.074219 5.046875 7.046875 C 5.023438 7.019531 5.011719 6.972656 5.011719 6.910156 L 5.011719 6.449219 L 4.945312 6.34375 L 4.945312 6.488281 C 4.945312 6.523438 4.941406 6.550781 4.933594 6.574219 C 4.929688 6.597656 4.917969 6.617188 4.902344 6.632812 Z M 7.761719 6.902344 C 7.691406 6.980469 7.59375 7.039062 7.46875 7.082031 C 7.34375 7.125 7.179688 7.148438 6.980469 7.148438 C 6.785156 7.148438 6.625 7.121094 6.496094 7.066406 C 6.371094 7.015625 6.273438 6.945312 6.203125 6.855469 C 6.132812 6.769531 6.082031 6.667969 6.054688 6.554688 C 6.027344 6.441406 6.015625 6.324219 6.015625 6.199219 L 6.015625 4.992188 C 6.015625 4.875 6.027344 4.765625 6.054688 4.664062 C 6.082031 4.558594 6.128906 4.472656 6.195312 4.398438 L 6.585938 3.980469 C 6.65625 3.902344 6.753906 3.84375 6.878906 3.800781 C 7.003906 3.757812 7.167969 3.734375 7.367188 3.734375 C 7.566406 3.734375 7.726562 3.753906 7.851562 3.796875 C 7.976562 3.839844 8.074219 3.894531 8.144531 3.972656 C 8.21875 4.042969 8.265625 4.132812 8.292969 4.234375 C 8.320312 4.335938 8.332031 4.449219 8.332031 4.570312 L 8.332031 5.894531 C 8.332031 6.011719 8.320312 6.121094 8.292969 6.222656 C 8.265625 6.324219 8.21875 6.410156 8.152344 6.484375 Z M 8.300781 5.894531 L 8.300781 4.570312 C 8.300781 4.449219 8.289062 4.34375 8.257812 4.246094 C 8.234375 4.148438 8.183594 4.066406 8.113281 3.996094 C 8.046875 3.925781 7.953125 3.871094 7.828125 3.832031 C 7.707031 3.792969 7.554688 3.773438 7.367188 3.773438 C 7.183594 3.773438 7.027344 3.792969 6.90625 3.832031 C 6.785156 3.871094 6.6875 3.925781 6.617188 3.996094 C 6.550781 4.066406 6.5 4.148438 6.472656 4.246094 C 6.445312 4.34375 6.433594 4.449219 6.433594 4.570312 L 6.433594 5.894531 C 6.433594 6.011719 6.445312 6.121094 6.472656 6.21875 C 6.5 6.316406 6.550781 6.398438 6.617188 6.46875 C 6.6875 6.535156 6.785156 6.589844 6.90625 6.628906 C 7.027344 6.667969 7.183594 6.6875 7.367188 6.6875 C 7.554688 6.6875 7.707031 6.667969 7.828125 6.628906 C 7.953125 6.589844 8.046875 6.535156 8.113281 6.46875 C 8.183594 6.398438 8.234375 6.316406 8.257812 6.21875 C 8.289062 6.121094 8.300781 6.011719 8.300781 5.894531 Z M 7.972656 5.804688 C 7.972656 5.960938 7.929688 6.085938 7.84375 6.183594 C 7.757812 6.28125 7.597656 6.328125 7.363281 6.328125 C 7.128906 6.328125 6.96875 6.28125 6.886719 6.183594 C 6.800781 6.085938 6.757812 5.960938 6.757812 5.804688 L 6.757812 4.660156 C 6.757812 4.503906 6.800781 4.378906 6.886719 4.28125 C 6.96875 4.183594 7.128906 4.132812 7.363281 4.132812 C 7.597656 4.132812 7.757812 4.183594 7.84375 4.28125 C 7.929688 4.378906 7.972656 4.503906 7.972656 4.660156 Z M 6.789062 5.804688 C 6.789062 5.949219 6.828125 6.066406 6.910156 6.15625 C 6.988281 6.246094 7.140625 6.289062 7.363281 6.289062 C 7.585938 6.289062 7.738281 6.246094 7.820312 6.15625 C 7.902344 6.066406 7.945312 5.949219 7.945312 5.804688 L 7.945312 4.660156 C 7.945312 4.515625 7.902344 4.398438 7.820312 4.308594 C 7.738281 4.21875 7.585938 4.171875 7.363281 4.171875 C 7.140625 4.171875 6.988281 4.21875 6.910156 4.308594 C 6.828125 4.398438 6.789062 4.515625 6.789062 4.660156 Z M 7.117188 5.753906 L 7.117188 4.710938 C 7.117188 4.660156 7.132812 4.617188 7.160156 4.585938 C 7.191406 4.550781 7.261719 4.53125 7.367188 4.53125 C 7.476562 4.53125 7.546875 4.550781 7.578125 4.585938 C 7.605469 4.617188 7.621094 4.660156 7.621094 4.710938 L 7.621094 5.753906 C 7.621094 5.804688 7.605469 5.851562 7.578125 5.886719 C 7.546875 5.917969 7.476562 5.9375 7.367188 5.9375 C 7.261719 5.9375 7.191406 5.917969 7.160156 5.886719 C 7.132812 5.851562 7.117188 5.804688 7.117188 5.753906 Z M 7.144531 5.753906 C 7.144531 5.78125 7.152344 5.804688 7.160156 5.824219 C 7.167969 5.84375 7.179688 5.859375 7.203125 5.871094 L 7.203125 5.132812 C 7.203125 5.105469 7.199219 5.085938 7.191406 5.066406 C 7.183594 5.046875 7.167969 5.03125 7.144531 5.019531 Z M 9.257812 7.089844 L 8.769531 7.089844 C 8.722656 7.089844 8.6875 7.074219 8.664062 7.046875 C 8.644531 7.019531 8.632812 6.972656 8.632812 6.910156 L 8.632812 5.042969 L 8.21875 5.042969 C 8.171875 5.042969 8.136719 5.027344 8.113281 5 C 8.09375 4.972656 8.082031 4.925781 8.082031 4.863281 L 8.082031 4.394531 C 8.082031 4.359375 8.085938 4.332031 8.089844 4.308594 C 8.097656 4.285156 8.109375 4.265625 8.125 4.25 L 8.511719 3.828125 C 8.523438 3.816406 8.535156 3.808594 8.550781 3.804688 C 8.570312 3.796875 8.589844 3.792969 8.609375 3.792969 L 10.195312 3.792969 C 10.246094 3.792969 10.28125 3.808594 10.300781 3.835938 C 10.324219 3.863281 10.335938 3.910156 10.335938 3.972656 L 10.335938 4.441406 C 10.335938 4.476562 10.332031 4.503906 10.324219 4.527344 C 10.316406 4.550781 10.304688 4.570312 10.292969 4.585938 L 9.902344 5.003906 C 9.894531 5.015625 9.878906 5.023438 9.863281 5.03125 C 9.847656 5.039062 9.828125 5.042969 9.808594 5.042969 L 9.785156 5.042969 L 9.785156 6.488281 C 9.785156 6.523438 9.78125 6.550781 9.773438 6.574219 C 9.765625 6.597656 9.757812 6.617188 9.742188 6.632812 L 9.351562 7.050781 C 9.34375 7.0625 9.328125 7.070312 9.3125 7.078125 C 9.296875 7.085938 9.277344 7.089844 9.257812 7.089844 Z M 9.644531 6.628906 C 9.683594 6.628906 9.710938 6.617188 9.726562 6.597656 C 9.746094 6.574219 9.753906 6.539062 9.753906 6.488281 L 9.753906 4.582031 L 10.195312 4.582031 C 10.234375 4.582031 10.261719 4.570312 10.277344 4.550781 C 10.296875 4.527344 10.304688 4.492188 10.304688 4.441406 L 10.304688 3.972656 C 10.304688 3.921875 10.296875 3.886719 10.277344 3.867188 C 10.261719 3.84375 10.234375 3.832031 10.195312 3.832031 L 8.609375 3.832031 C 8.570312 3.832031 8.542969 3.84375 8.523438 3.867188 C 8.507812 3.886719 8.5 3.921875 8.5 3.972656 L 8.5 4.441406 C 8.5 4.492188 8.507812 4.527344 8.523438 4.550781 C 8.542969 4.570312 8.570312 4.582031 8.609375 4.582031 L 9.050781 4.582031 L 9.050781 6.488281 C 9.050781 6.539062 9.058594 6.574219 9.074219 6.597656 C 9.09375 6.617188 9.121094 6.628906 9.160156 6.628906 Z M 9.386719 6.277344 L 9.386719 4.21875 L 8.769531 4.21875 L 8.769531 4.179688 L 10.035156 4.179688 L 10.035156 4.21875 L 9.417969 4.21875 L 9.417969 6.277344 Z M 11.667969 7.089844 L 10.269531 7.089844 C 10.222656 7.089844 10.1875 7.074219 10.164062 7.046875 C 10.144531 7.019531 10.132812 6.972656 10.132812 6.910156 L 10.132812 4.394531 C 10.132812 4.359375 10.136719 4.332031 10.140625 4.308594 C 10.148438 4.285156 10.160156 4.265625 10.175781 4.25 L 10.5625 3.828125 C 10.574219 3.816406 10.585938 3.808594 10.601562 3.804688 C 10.621094 3.796875 10.640625 3.792969 10.660156 3.792969 L 12.054688 3.792969 C 12.101562 3.792969 12.136719 3.808594 12.160156 3.835938 C 12.183594 3.863281 12.191406 3.910156 12.191406 3.972656 L 12.191406 4.425781 C 12.191406 4.460938 12.1875 4.488281 12.179688 4.511719 C 12.175781 4.535156 12.164062 4.554688 12.152344 4.570312 L 11.890625 4.84375 C 11.910156 4.859375 11.925781 4.878906 11.933594 4.902344 C 11.945312 4.929688 11.949219 4.964844 11.949219 5.003906 L 11.949219 5.421875 C 11.949219 5.453125 11.945312 5.480469 11.9375 5.503906 C 11.929688 5.527344 11.921875 5.546875 11.90625 5.5625 L 11.640625 5.855469 L 12.054688 5.855469 C 12.101562 5.855469 12.136719 5.871094 12.160156 5.898438 C 12.183594 5.925781 12.191406 5.972656 12.191406 6.035156 L 12.191406 6.488281 C 12.191406 6.523438 12.1875 6.550781 12.179688 6.574219 C 12.175781 6.597656 12.164062 6.617188 12.152344 6.632812 L 11.757812 7.050781 C 11.75 7.0625 11.738281 7.070312 11.71875 7.078125 C 11.703125 7.085938 11.6875 7.089844 11.667969 7.089844 Z M 12.054688 6.628906 C 12.09375 6.628906 12.121094 6.617188 12.136719 6.597656 C 12.152344 6.574219 12.164062 6.539062 12.164062 6.488281 L 12.164062 6.035156 C 12.164062 5.984375 12.152344 5.949219 12.136719 5.929688 C 12.121094 5.90625 12.09375 5.894531 12.054688 5.894531 L 11.222656 5.894531 L 11.222656 5.558594 L 11.8125 5.558594 C 11.847656 5.558594 11.875 5.550781 11.890625 5.527344 C 11.910156 5.503906 11.917969 5.46875 11.917969 5.421875 L 11.917969 5.003906 C 11.917969 4.957031 11.910156 4.921875 11.890625 4.898438 C 11.875 4.875 11.847656 4.863281 11.8125 4.863281 L 11.222656 4.863281 L 11.222656 4.566406 L 12.054688 4.566406 C 12.09375 4.566406 12.121094 4.554688 12.136719 4.535156 C 12.152344 4.511719 12.164062 4.476562 12.164062 4.425781 L 12.164062 3.972656 C 12.164062 3.921875 12.152344 3.886719 12.136719 3.867188 C 12.121094 3.84375 12.09375 3.832031 12.054688 3.832031 L 10.660156 3.832031 C 10.621094 3.832031 10.59375 3.84375 10.574219 3.867188 C 10.558594 3.886719 10.550781 3.921875 10.550781 3.972656 L 10.550781 6.488281 C 10.550781 6.539062 10.558594 6.574219 10.574219 6.597656 C 10.59375 6.617188 10.621094 6.628906 10.660156 6.628906 Z M 11.890625 6.238281 L 11.890625 6.277344 L 10.878906 6.277344 L 10.878906 4.179688 L 11.890625 4.179688 L 11.890625 4.21875 L 10.910156 4.21875 L 10.910156 5.195312 L 11.648438 5.195312 L 11.648438 5.234375 L 10.910156 5.234375 L 10.910156 6.238281 Z M 3.480469 11.5625 C 3.414062 11.640625 3.3125 11.699219 3.1875 11.742188 C 3.0625 11.785156 2.898438 11.808594 2.699219 11.808594 C 2.503906 11.808594 2.34375 11.78125 2.214844 11.726562 C 2.09375 11.675781 1.992188 11.605469 1.921875 11.515625 C 1.851562 11.429688 1.800781 11.328125 1.773438 11.214844 C 1.746094 11.101562 1.734375 10.984375 1.734375 10.859375 L 1.734375 9.652344 C 1.734375 9.535156 1.746094 9.425781 1.773438 9.324219 C 1.800781 9.21875 1.847656 9.132812 1.914062 9.058594 L 2.304688 8.640625 C 2.375 8.5625 2.472656 8.503906 2.597656 8.460938 C 2.722656 8.417969 2.886719 8.394531 3.089844 8.394531 C 3.285156 8.394531 3.445312 8.414062 3.570312 8.457031 C 3.695312 8.5 3.792969 8.554688 3.863281 8.632812 C 3.9375 8.703125 3.984375 8.792969 4.011719 8.894531 C 4.039062 8.996094 4.050781 9.109375 4.050781 9.230469 L 4.050781 10.554688 C 4.050781 10.671875 4.039062 10.78125 4.011719 10.882812 C 3.984375 10.984375 3.9375 11.070312 3.871094 11.144531 Z M 4.019531 10.554688 L 4.019531 9.230469 C 4.019531 9.109375 4.007812 9.003906 3.980469 8.90625 C 3.953125 8.808594 3.90625 8.726562 3.835938 8.65625 C 3.765625 8.585938 3.671875 8.53125 3.546875 8.492188 C 3.429688 8.453125 3.273438 8.433594 3.089844 8.433594 C 2.902344 8.433594 2.746094 8.453125 2.625 8.492188 C 2.503906 8.53125 2.40625 8.585938 2.335938 8.65625 C 2.269531 8.726562 2.21875 8.808594 2.191406 8.90625 C 2.167969 9.003906 2.152344 9.109375 2.152344 9.230469 L 2.152344 10.554688 C 2.152344 10.671875 2.167969 10.78125 2.191406 10.878906 C 2.21875 10.976562 2.269531 11.058594 2.335938 11.128906 C 2.40625 11.195312 2.503906 11.25 2.625 11.289062 C 2.746094 11.328125 2.902344 11.347656 3.089844 11.347656 C 3.273438 11.347656 3.429688 11.328125 3.546875 11.289062 C 3.671875 11.25 3.765625 11.195312 3.835938 11.128906 C 3.90625 11.058594 3.953125 10.976562 3.980469 10.878906 C 4.007812 10.78125 4.019531 10.671875 4.019531 10.554688 Z M 3.691406 10.464844 C 3.691406 10.621094 3.648438 10.746094 3.5625 10.84375 C 3.476562 10.941406 3.316406 10.988281 3.082031 10.988281 C 2.847656 10.988281 2.6875 10.941406 2.605469 10.84375 C 2.519531 10.746094 2.476562 10.621094 2.476562 10.464844 L 2.476562 9.320312 C 2.476562 9.164062 2.519531 9.039062 2.605469 8.941406 C 2.6875 8.84375 2.847656 8.792969 3.082031 8.792969 C 3.316406 8.792969 3.476562 8.84375 3.5625 8.941406 C 3.648438 9.039062 3.691406 9.164062 3.691406 9.320312 Z M 2.507812 10.464844 C 2.507812 10.609375 2.546875 10.726562 2.628906 10.816406 C 2.707031 10.90625 2.859375 10.949219 3.082031 10.949219 C 3.304688 10.949219 3.457031 10.90625 3.539062 10.816406 C 3.621094 10.726562 3.664062 10.609375 3.664062 10.464844 L 3.664062 9.320312 C 3.664062 9.175781 3.621094 9.058594 3.539062 8.96875 C 3.457031 8.878906 3.304688 8.832031 3.082031 8.832031 C 2.859375 8.832031 2.707031 8.878906 2.628906 8.96875 C 2.546875 9.058594 2.507812 9.175781 2.507812 9.320312 Z M 2.835938 10.414062 L 2.835938 9.371094 C 2.835938 9.320312 2.851562 9.277344 2.878906 9.246094 C 2.910156 9.210938 2.980469 9.191406 3.089844 9.191406 C 3.195312 9.191406 3.265625 9.210938 3.296875 9.246094 C 3.324219 9.277344 3.339844 9.320312 3.339844 9.371094 L 3.339844 10.414062 C 3.339844 10.464844 3.324219 10.511719 3.296875 10.546875 C 3.265625 10.578125 3.195312 10.597656 3.089844 10.597656 C 2.980469 10.597656 2.910156 10.578125 2.878906 10.546875 C 2.851562 10.511719 2.835938 10.464844 2.835938 10.414062 Z M 2.867188 10.414062 C 2.867188 10.441406 2.871094 10.464844 2.878906 10.484375 C 2.886719 10.503906 2.902344 10.519531 2.921875 10.53125 L 2.921875 9.792969 C 2.921875 9.765625 2.917969 9.746094 2.910156 9.726562 C 2.902344 9.707031 2.886719 9.691406 2.867188 9.679688 Z M 4.753906 8.871094 L 5.859375 10.480469 L 5.859375 8.839844 L 5.890625 8.839844 L 5.890625 10.9375 L 5.859375 10.9375 L 5.859375 10.539062 L 4.722656 8.890625 C 4.722656 8.890625 4.71875 8.886719 4.714844 8.882812 C 4.714844 8.882812 4.710938 8.878906 4.710938 8.878906 C 4.707031 8.878906 4.707031 8.882812 4.703125 8.882812 C 4.703125 8.886719 4.703125 8.890625 4.703125 8.890625 L 4.703125 10.9375 L 4.671875 10.9375 L 4.671875 8.882812 C 4.671875 8.867188 4.675781 8.855469 4.683594 8.847656 C 4.691406 8.839844 4.699219 8.835938 4.710938 8.835938 C 4.71875 8.835938 4.722656 8.839844 4.730469 8.84375 C 4.734375 8.851562 4.746094 8.859375 4.753906 8.871094 Z M 4.917969 11.289062 C 4.953125 11.289062 4.980469 11.277344 4.996094 11.257812 C 5.015625 11.234375 5.023438 11.199219 5.023438 11.148438 L 5.023438 9.867188 L 5.539062 10.671875 L 5.539062 11.148438 C 5.539062 11.199219 5.546875 11.234375 5.5625 11.257812 C 5.582031 11.277344 5.609375 11.289062 5.648438 11.289062 L 6.097656 11.289062 C 6.136719 11.289062 6.164062 11.277344 6.179688 11.257812 C 6.199219 11.234375 6.207031 11.199219 6.207031 11.148438 L 6.207031 8.632812 C 6.207031 8.582031 6.199219 8.546875 6.179688 8.527344 C 6.164062 8.503906 6.136719 8.492188 6.097656 8.492188 L 5.648438 8.492188 C 5.609375 8.492188 5.582031 8.503906 5.5625 8.527344 C 5.546875 8.546875 5.539062 8.582031 5.539062 8.632812 L 5.539062 9.457031 L 4.957031 8.597656 C 4.929688 8.558594 4.902344 8.53125 4.875 8.515625 C 4.847656 8.5 4.816406 8.492188 4.777344 8.492188 L 4.464844 8.492188 C 4.425781 8.492188 4.398438 8.503906 4.382812 8.527344 C 4.367188 8.546875 4.355469 8.582031 4.355469 8.632812 L 4.355469 11.148438 C 4.355469 11.199219 4.367188 11.234375 4.382812 11.257812 C 4.398438 11.277344 4.425781 11.289062 4.464844 11.289062 Z M 5.011719 11.292969 L 4.621094 11.710938 C 4.613281 11.722656 4.601562 11.730469 4.582031 11.738281 C 4.566406 11.746094 4.546875 11.75 4.527344 11.75 L 4.078125 11.75 C 4.03125 11.75 3.996094 11.734375 3.972656 11.707031 C 3.949219 11.679688 3.9375 11.632812 3.9375 11.570312 L 3.9375 9.054688 C 3.9375 9.019531 3.941406 8.992188 3.949219 8.96875 C 3.957031 8.945312 3.96875 8.925781 3.980469 8.910156 L 4.371094 8.488281 C 4.378906 8.476562 4.390625 8.46875 4.410156 8.464844 C 4.425781 8.457031 4.445312 8.453125 4.464844 8.453125 L 4.777344 8.453125 C 4.824219 8.453125 4.859375 8.460938 4.890625 8.480469 C 4.917969 8.5 4.949219 8.527344 4.980469 8.570312 L 5.1875 8.878906 L 5.550781 8.488281 C 5.5625 8.476562 5.574219 8.46875 5.589844 8.464844 C 5.609375 8.457031 5.628906 8.453125 5.648438 8.453125 L 6.097656 8.453125 C 6.148438 8.453125 6.183594 8.46875 6.203125 8.496094 C 6.226562 8.523438 6.238281 8.570312 6.238281 8.632812 L 6.238281 11.148438 C 6.238281 11.183594 6.234375 11.210938 6.226562 11.234375 C 6.21875 11.257812 6.207031 11.277344 6.195312 11.292969 L 5.804688 11.710938 C 5.796875 11.722656 5.78125 11.730469 5.765625 11.738281 C 5.75 11.746094 5.730469 11.75 5.710938 11.75 L 5.257812 11.75 C 5.210938 11.75 5.175781 11.734375 5.152344 11.707031 C 5.132812 11.679688 5.121094 11.632812 5.121094 11.570312 L 5.121094 11.109375 L 5.054688 11.003906 L 5.054688 11.148438 C 5.054688 11.183594 5.050781 11.210938 5.042969 11.234375 C 5.035156 11.257812 5.027344 11.277344 5.011719 11.292969 Z M 7.828125 11.75 L 6.296875 11.75 C 6.246094 11.75 6.210938 11.734375 6.191406 11.707031 C 6.167969 11.679688 6.15625 11.632812 6.15625 11.570312 L 6.15625 9.054688 C 6.15625 9.019531 6.160156 8.992188 6.167969 8.96875 C 6.175781 8.945312 6.183594 8.925781 6.199219 8.910156 L 6.585938 8.488281 C 6.597656 8.476562 6.609375 8.46875 6.625 8.464844 C 6.644531 8.457031 6.664062 8.453125 6.683594 8.453125 L 7.148438 8.453125 C 7.199219 8.453125 7.234375 8.46875 7.253906 8.496094 C 7.277344 8.523438 7.289062 8.570312 7.289062 8.632812 L 7.289062 10.210938 L 7.292969 10.203125 L 7.683594 9.78125 C 7.691406 9.769531 7.707031 9.761719 7.722656 9.757812 C 7.738281 9.75 7.757812 9.746094 7.777344 9.746094 L 8.214844 9.746094 C 8.261719 9.746094 8.296875 9.761719 8.320312 9.789062 C 8.34375 9.816406 8.351562 9.863281 8.351562 9.925781 L 8.351562 11.148438 C 8.351562 11.183594 8.347656 11.210938 8.339844 11.234375 C 8.335938 11.257812 8.324219 11.277344 8.3125 11.292969 L 7.917969 11.710938 C 7.910156 11.722656 7.898438 11.730469 7.878906 11.738281 C 7.863281 11.746094 7.847656 11.75 7.828125 11.75 Z M 8.214844 11.289062 C 8.253906 11.289062 8.28125 11.277344 8.296875 11.257812 C 8.3125 11.234375 8.324219 11.199219 8.324219 11.148438 L 8.324219 9.925781 C 8.324219 9.875 8.3125 9.839844 8.296875 9.820312 C 8.28125 9.796875 8.253906 9.785156 8.214844 9.785156 L 7.777344 9.785156 C 7.742188 9.785156 7.710938 9.796875 7.695312 9.820312 C 7.679688 9.839844 7.671875 9.875 7.671875 9.925781 L 7.671875 10.554688 L 7.257812 10.554688 L 7.257812 8.632812 C 7.257812 8.582031 7.25 8.546875 7.230469 8.527344 C 7.214844 8.503906 7.1875 8.492188 7.148438 8.492188 L 6.683594 8.492188 C 6.644531 8.492188 6.617188 8.503906 6.597656 8.527344 C 6.582031 8.546875 6.574219 8.582031 6.574219 8.632812 L 6.574219 11.148438 C 6.574219 11.199219 6.582031 11.234375 6.597656 11.257812 C 6.617188 11.277344 6.644531 11.289062 6.683594 11.289062 Z M 6.902344 10.9375 L 6.902344 8.839844 L 6.933594 8.839844 L 6.933594 10.898438 L 7.980469 10.898438 L 7.980469 10.132812 L 8.011719 10.132812 L 8.011719 10.9375 Z M 9.574219 11.75 L 8.292969 11.75 C 8.246094 11.75 8.210938 11.734375 8.1875 11.707031 C 8.164062 11.679688 8.152344 11.632812 8.152344 11.570312 L 8.152344 11.109375 C 8.152344 11.074219 8.15625 11.046875 8.164062 11.023438 C 8.171875 11 8.183594 10.980469 8.195312 10.964844 L 8.558594 10.570312 L 8.558594 9.703125 L 8.292969 9.703125 C 8.246094 9.703125 8.210938 9.6875 8.1875 9.660156 C 8.164062 9.632812 8.152344 9.585938 8.152344 9.523438 L 8.152344 9.054688 C 8.152344 9.019531 8.15625 8.992188 8.164062 8.96875 C 8.171875 8.945312 8.183594 8.925781 8.195312 8.910156 L 8.585938 8.488281 C 8.59375 8.476562 8.605469 8.46875 8.625 8.464844 C 8.640625 8.457031 8.660156 8.453125 8.679688 8.453125 L 9.960938 8.453125 C 10.011719 8.453125 10.042969 8.46875 10.066406 8.496094 C 10.089844 8.523438 10.101562 8.570312 10.101562 8.632812 L 10.101562 9.101562 C 10.101562 9.136719 10.097656 9.164062 10.089844 9.1875 C 10.082031 9.210938 10.070312 9.230469 10.058594 9.246094 L 9.699219 9.632812 L 9.699219 10.507812 L 9.960938 10.507812 C 10.011719 10.507812 10.042969 10.523438 10.066406 10.550781 C 10.089844 10.578125 10.101562 10.625 10.101562 10.6875 L 10.101562 11.148438 C 10.101562 11.183594 10.097656 11.210938 10.089844 11.234375 C 10.082031 11.257812 10.070312 11.277344 10.058594 11.292969 L 9.667969 11.710938 C 9.660156 11.722656 9.644531 11.730469 9.628906 11.738281 C 9.613281 11.746094 9.59375 11.75 9.574219 11.75 Z M 8.679688 11.289062 L 9.960938 11.289062 C 10 11.289062 10.027344 11.277344 10.042969 11.257812 C 10.0625 11.234375 10.070312 11.199219 10.070312 11.148438 L 10.070312 10.6875 C 10.070312 10.636719 10.0625 10.601562 10.042969 10.582031 C 10.027344 10.558594 10 10.546875 9.960938 10.546875 L 9.671875 10.546875 L 9.671875 9.242188 L 9.960938 9.242188 C 10 9.242188 10.027344 9.230469 10.042969 9.210938 C 10.0625 9.1875 10.070312 9.152344 10.070312 9.101562 L 10.070312 8.632812 C 10.070312 8.582031 10.0625 8.546875 10.042969 8.527344 C 10.027344 8.503906 10 8.492188 9.960938 8.492188 L 8.679688 8.492188 C 8.640625 8.492188 8.613281 8.503906 8.597656 8.527344 C 8.582031 8.546875 8.570312 8.582031 8.570312 8.632812 L 8.570312 9.101562 C 8.570312 9.152344 8.582031 9.1875 8.597656 9.210938 C 8.613281 9.230469 8.640625 9.242188 8.679688 9.242188 L 8.976562 9.242188 L 8.976562 10.546875 L 8.679688 10.546875 C 8.640625 10.546875 8.613281 10.558594 8.597656 10.582031 C 8.582031 10.601562 8.570312 10.636719 8.570312 10.6875 L 8.570312 11.148438 C 8.570312 11.199219 8.582031 11.234375 8.597656 11.257812 C 8.613281 11.277344 8.640625 11.289062 8.679688 11.289062 Z M 9.800781 10.9375 L 8.84375 10.9375 L 8.84375 10.898438 L 9.308594 10.898438 L 9.308594 8.878906 L 8.84375 8.878906 L 8.84375 8.839844 L 9.800781 8.839844 L 9.800781 8.878906 L 9.339844 8.878906 L 9.339844 10.898438 L 9.800781 10.898438 Z M 10.792969 8.871094 L 11.898438 10.480469 L 11.898438 8.839844 L 11.929688 8.839844 L 11.929688 10.9375 L 11.898438 10.9375 L 11.898438 10.539062 L 10.761719 8.890625 C 10.761719 8.890625 10.757812 8.886719 10.753906 8.882812 C 10.75 8.882812 10.75 8.878906 10.746094 8.878906 C 10.746094 8.878906 10.742188 8.882812 10.742188 8.882812 C 10.742188 8.886719 10.742188 8.890625 10.742188 8.890625 L 10.742188 10.9375 L 10.710938 10.9375 L 10.710938 8.882812 C 10.710938 8.867188 10.714844 8.855469 10.722656 8.847656 C 10.730469 8.839844 10.738281 8.835938 10.746094 8.835938 C 10.753906 8.835938 10.761719 8.839844 10.769531 8.84375 C 10.773438 8.851562 10.78125 8.859375 10.792969 8.871094 Z M 10.953125 11.289062 C 10.992188 11.289062 11.019531 11.277344 11.035156 11.257812 C 11.054688 11.234375 11.0625 11.199219 11.0625 11.148438 L 11.0625 9.867188 L 11.578125 10.671875 L 11.578125 11.148438 C 11.578125 11.199219 11.585938 11.234375 11.601562 11.257812 C 11.617188 11.277344 11.648438 11.289062 11.683594 11.289062 L 12.136719 11.289062 C 12.175781 11.289062 12.203125 11.277344 12.21875 11.257812 C 12.234375 11.234375 12.246094 11.199219 12.246094 11.148438 L 12.246094 8.632812 C 12.246094 8.582031 12.234375 8.546875 12.21875 8.527344 C 12.203125 8.503906 12.175781 8.492188 12.136719 8.492188 L 11.683594 8.492188 C 11.648438 8.492188 11.617188 8.503906 11.601562 8.527344 C 11.585938 8.546875 11.578125 8.582031 11.578125 8.632812 L 11.578125 9.457031 L 10.992188 8.597656 C 10.96875 8.558594 10.941406 8.53125 10.914062 8.515625 C 10.886719 8.5 10.855469 8.492188 10.816406 8.492188 L 10.503906 8.492188 C 10.464844 8.492188 10.4375 8.503906 10.417969 8.527344 C 10.402344 8.546875 10.394531 8.582031 10.394531 8.632812 L 10.394531 11.148438 C 10.394531 11.199219 10.402344 11.234375 10.417969 11.257812 C 10.4375 11.277344 10.464844 11.289062 10.503906 11.289062 Z M 11.050781 11.292969 L 10.660156 11.710938 C 10.652344 11.722656 10.636719 11.730469 10.621094 11.738281 C 10.605469 11.746094 10.585938 11.75 10.566406 11.75 L 10.117188 11.75 C 10.066406 11.75 10.03125 11.734375 10.011719 11.707031 C 9.988281 11.679688 9.976562 11.632812 9.976562 11.570312 L 9.976562 9.054688 C 9.976562 9.019531 9.980469 8.992188 9.984375 8.96875 C 9.992188 8.945312 10.003906 8.925781 10.019531 8.910156 L 10.40625 8.488281 C 10.417969 8.476562 10.429688 8.46875 10.445312 8.464844 C 10.464844 8.457031 10.484375 8.453125 10.503906 8.453125 L 10.816406 8.453125 C 10.859375 8.453125 10.898438 8.460938 10.925781 8.480469 C 10.957031 8.5 10.988281 8.527344 11.015625 8.570312 L 11.226562 8.878906 L 11.589844 8.488281 C 11.597656 8.476562 11.613281 8.46875 11.628906 8.464844 C 11.644531 8.457031 11.664062 8.453125 11.683594 8.453125 L 12.136719 8.453125 C 12.183594 8.453125 12.21875 8.46875 12.242188 8.496094 C 12.261719 8.523438 12.273438 8.570312 12.273438 8.632812 L 12.273438 11.148438 C 12.273438 11.183594 12.269531 11.210938 12.261719 11.234375 C 12.257812 11.257812 12.246094 11.277344 12.234375 11.292969 L 11.839844 11.710938 C 11.832031 11.722656 11.820312 11.730469 11.800781 11.738281 C 11.785156 11.746094 11.769531 11.75 11.75 11.75 L 11.296875 11.75 C 11.25 11.75 11.214844 11.734375 11.191406 11.707031 C 11.171875 11.679688 11.160156 11.632812 11.160156 11.570312 L 11.160156 11.109375 L 11.09375 11.003906 L 11.09375 11.148438 C 11.09375 11.183594 11.089844 11.210938 11.082031 11.234375 C 11.074219 11.257812 11.066406 11.277344 11.050781 11.292969 Z M 13.730469 11.75 L 12.332031 11.75 C 12.285156 11.75 12.25 11.734375 12.226562 11.707031 C 12.207031 11.679688 12.195312 11.632812 12.195312 11.570312 L 12.195312 9.054688 C 12.195312 9.019531 12.199219 8.992188 12.203125 8.96875 C 12.210938 8.945312 12.222656 8.925781 12.238281 8.910156 L 12.625 8.488281 C 12.636719 8.476562 12.648438 8.46875 12.664062 8.464844 C 12.683594 8.457031 12.703125 8.453125 12.722656 8.453125 L 14.117188 8.453125 C 14.164062 8.453125 14.199219 8.46875 14.222656 8.496094 C 14.246094 8.523438 14.253906 8.570312 14.253906 8.632812 L 14.253906 9.085938 C 14.253906 9.121094 14.25 9.148438 14.242188 9.171875 C 14.238281 9.195312 14.226562 9.214844 14.214844 9.230469 L 13.953125 9.503906 C 13.972656 9.519531 13.988281 9.539062 13.996094 9.5625 C 14.007812 9.589844 14.011719 9.625 14.011719 9.664062 L 14.011719 10.082031 C 14.011719 10.113281 14.007812 10.140625 14 10.164062 C 13.992188 10.1875 13.984375 10.207031 13.96875 10.222656 L 13.703125 10.515625 L 14.117188 10.515625 C 14.164062 10.515625 14.199219 10.53125 14.222656 10.558594 C 14.246094 10.585938 14.253906 10.632812 14.253906 10.695312 L 14.253906 11.148438 C 14.253906 11.183594 14.25 11.210938 14.242188 11.234375 C 14.238281 11.257812 14.226562 11.277344 14.214844 11.292969 L 13.820312 11.710938 C 13.8125 11.722656 13.800781 11.730469 13.78125 11.738281 C 13.765625 11.746094 13.75 11.75 13.730469 11.75 Z M 14.117188 11.289062 C 14.15625 11.289062 14.183594 11.277344 14.199219 11.257812 C 14.214844 11.234375 14.226562 11.199219 14.226562 11.148438 L 14.226562 10.695312 C 14.226562 10.644531 14.214844 10.609375 14.199219 10.589844 C 14.183594 10.566406 14.15625 10.554688 14.117188 10.554688 L 13.285156 10.554688 L 13.285156 10.21875 L 13.875 10.21875 C 13.910156 10.21875 13.9375 10.210938 13.953125 10.1875 C 13.972656 10.164062 13.980469 10.128906 13.980469 10.082031 L 13.980469 9.664062 C 13.980469 9.617188 13.972656 9.582031 13.953125 9.558594 C 13.9375 9.535156 13.910156 9.523438 13.875 9.523438 L 13.285156 9.523438 L 13.285156 9.226562 L 14.117188 9.226562 C 14.15625 9.226562 14.183594 9.214844 14.199219 9.195312 C 14.214844 9.171875 14.226562 9.136719 14.226562 9.085938 L 14.226562 8.632812 C 14.226562 8.582031 14.214844 8.546875 14.199219 8.527344 C 14.183594 8.503906 14.15625 8.492188 14.117188 8.492188 L 12.722656 8.492188 C 12.683594 8.492188 12.65625 8.503906 12.636719 8.527344 C 12.621094 8.546875 12.613281 8.582031 12.613281 8.632812 L 12.613281 11.148438 C 12.613281 11.199219 12.621094 11.234375 12.636719 11.257812 C 12.65625 11.277344 12.683594 11.289062 12.722656 11.289062 Z M 13.953125 10.898438 L 13.953125 10.9375 L 12.941406 10.9375 L 12.941406 8.839844 L 13.953125 8.839844 L 13.953125 8.878906 L 12.972656 8.878906 L 12.972656 9.855469 L 13.710938 9.855469 L 13.710938 9.894531 L 12.972656 9.894531 L 12.972656 10.898438 Z M 13.953125 10.898438 "/>
</g>
</svg>
